<svg viewBox="0 0 12 12" fill="none" xmlns="http://www.w3.org/2000/svg">
<path d="M11.3328 10.7282L8.62106 8.00537C9.31829 7.20517 9.7003 6.19836 9.7003 5.15023C9.7003 2.70137 7.63663 0.708984 5.10015 0.708984C2.56367 0.708984 0.5 2.70137 0.5 5.15023C0.5 7.59909 2.56367 9.59148 5.10015 9.59148C6.05238 9.59148 6.95981 9.31419 7.73563 8.7878L10.4679 11.5313C10.5821 11.6458 10.7357 11.709 10.9003 11.709C11.0561 11.709 11.2039 11.6516 11.3162 11.5474C11.5546 11.3259 11.5622 10.9586 11.3328 10.7282ZM5.10015 1.86757C6.97501 1.86757 8.50026 3.34013 8.50026 5.15023C8.50026 6.96033 6.97501 8.43289 5.10015 8.43289C3.22529 8.43289 1.70004 6.96033 1.70004 5.15023C1.70004 3.34013 3.22529 1.86757 5.10015 1.86757Z" fill="currentColor"/>
</svg>
